<svg id="Layer_1" data-name="Layer 1" xmlns="http://www.w3.org/2000/svg" viewBox="0 0 525.9 213.7"><defs><style>.cls-1{fill:#212121;}.cls-2{fill:#02e8b0;}.cls-3{fill:#00e9be;}</style></defs><title>particl_logo_2</title><path class="cls-1" d="M261.35,133.71h-7.21V99.81h7.21v2.66a8.38,8.38,0,0,1,7-3.41,10.53,10.53,0,0,1,7.91,3.18A13.08,13.08,0,0,1,276,120a10,10,0,0,1-7.56,3c-4.45,0-6.36-2.25-7.11-3.29Zm1.22-26.8a6,6,0,0,0-1.74,4.1,5.72,5.72,0,0,0,5.72,5.72,5.89,5.89,0,0,0,3.87-1.56,6.09,6.09,0,0,0,1.73-4.27,5.35,5.35,0,0,0-1.73-4,5.81,5.81,0,0,0-3.93-1.56A5.19,5.19,0,0,0,262.57,106.91Z"/><path class="cls-1" d="M301.32,99.81h7.22v22.41h-7.22V119.5a7.52,7.52,0,0,1-6.64,3.47,10.56,10.56,0,0,1-8.38-3.41,11.79,11.79,0,0,1-3.29-8.37,12.79,12.79,0,0,1,3.47-9.07,10.8,10.8,0,0,1,7.79-3.06,8.44,8.44,0,0,1,7.05,3.29Zm-9.19,7a5.63,5.63,0,0,0-1.67,4,6.16,6.16,0,0,0,1.5,4,5.9,5.9,0,0,0,4.27,1.73,5.2,5.2,0,0,0,3.76-1.55,5.62,5.62,0,0,0,1.73-4.22,5.45,5.45,0,0,0-1.67-4.1,6.15,6.15,0,0,0-4.05-1.56A5.76,5.76,0,0,0,292.13,106.86Z"/><path class="cls-1" d="M314.19,99.81h7.22v3.52a7.82,7.82,0,0,1,2.83-3.11,7,7,0,0,1,3.87-1,7.85,7.85,0,0,1,2.37.35l-.4,6.76a6.83,6.83,0,0,0-3.3-.81,4.91,4.91,0,0,0-3.63,1.5c-1.62,1.73-1.74,4.1-1.74,6v9.06h-7.22Z"/><path class="cls-1" d="M342.49,105.64v16.58h-7.22V105.64h-2.48V99.81h2.48V92.53h7.22v7.22h4.45v5.84l-4.45,0Z"/><path class="cls-1" d="M354.22,86A4.22,4.22,0,1,1,350,90.22,4.17,4.17,0,0,1,354.22,86Zm3.58,13.8v22.41h-7.22V99.81Z"/><path class="cls-1" d="M380.78,106.86a7.35,7.35,0,0,0-4.74-1.74,5.58,5.58,0,0,0-4.1,1.62,5.88,5.88,0,0,0-1.67,4.22,5.8,5.8,0,0,0,1.5,4,5.94,5.94,0,0,0,4.39,1.79,7.14,7.14,0,0,0,4.62-1.73v6.52a11.27,11.27,0,0,1-5.72,1.33,11.87,11.87,0,0,1-8.66-3.35,11.57,11.57,0,0,1-3.52-8.55,12.14,12.14,0,0,1,3.69-8.83A11.91,11.91,0,0,1,375.12,99a12.51,12.51,0,0,1,5.66,1.27v6.59Z"/><path class="cls-1" d="M393,85.6v36.62H385.8V85.6Z"/><rect class="cls-1" x="136.44" y="56.14" width="104.08" height="104.08" rx="32.02" ry="32.02"/><circle class="cls-2" cx="405.05" cy="107.77" r="6.29" transform="translate(7.02 239.1) rotate(-33.16)"/><path class="cls-2" d="M186.15,68.32c2.59-1.13,4.44,1.28,6,2.86a98.62,98.62,0,0,1,8.12,7.71,3.58,3.58,0,0,1-1.13,5.45,4,4,0,0,1-4.62-1c-3.09-3-6.06-6.1-9.29-9A3.67,3.67,0,0,1,186.15,68.32Z"/><path class="cls-2" d="M214.44,76.93c1.76-.94,4.55-.18,5,1.92.75,1.85-.45,3.69-1.77,4.93-2.86,2.82-5.68,5.76-8.46,8.65a3.64,3.64,0,0,1-4.26.9,3.6,3.6,0,0,1-1.09-5.56C207.48,84.23,210.56,80.21,214.44,76.93Z"/><path class="cls-2" d="M158.31,77.54a4.41,4.41,0,0,1,5.46,1.12c3,3.09,6.16,6.06,9.25,9.07,2,1.88.6,5.87-2.22,5.87-2.37.37-3.65-2-5.23-3.27a101,101,0,0,1-7.86-7.49A3.63,3.63,0,0,1,158.31,77.54Z"/><path class="cls-2" d="M160.27,95.7c3.08-1.16,6,2.68,4.14,5.35-2.26,2.93-5.2,5.3-7.68,8.12-1.47,1.51-2.82,3.8-5.23,3.5-2.86-.11-4.25-4.06-2.22-6C153,103.12,156,98.6,160.27,95.7Z"/><path class="cls-3" d="M223.28,104.24a3.53,3.53,0,0,1,5.34,2.75c.3,2.41-2.07,3.65-3.35,5.27a89.76,89.76,0,0,1-7.41,7.82,3.57,3.57,0,0,1-5.79-2.07c-.45-2.67,2.07-4.36,3.68-6.09C218.35,109.47,220.57,106.58,223.28,104.24Z"/><path class="cls-2" d="M168.66,123.13c2-1.24,5.15.22,5.19,2.71.37,2.4-2,3.68-3.31,5.26a105.58,105.58,0,0,1-7.41,7.83c-1.7,1.69-5.27.86-5.72-1.54-.83-2.34,1.16-4.26,2.71-5.72C163.09,128.92,165.65,125.8,168.66,123.13Z"/><path class="cls-2" d="M205.07,123.05a3.73,3.73,0,0,1,3.54.42c3.53,3.38,7.33,6.5,10.64,10.12a3.56,3.56,0,0,1,.45,4.06c-1,2.26-4.25,2.29-5.87.71-3.23-3-6.35-6.24-9.59-9.29C202.25,127.49,202.74,123.92,205.07,123.05Z"/><path class="cls-2" d="M177.76,132.08c1.69-.9,3.69,0,4.89,1.24,3,3.05,6.13,6.06,9.29,9,2.11,2,.68,6-2.26,6.06-2.37.26-3.61-2.07-5.22-3.39a84.62,84.62,0,0,1-7.83-7.44A3.55,3.55,0,0,1,177.76,132.08Z"/><circle class="cls-2" cx="168.84" cy="71.48" r="3.5"/><circle class="cls-2" cx="179" cy="81.03" r="3.5"/><circle class="cls-2" cx="151.8" cy="89.57" r="3.5"/><circle class="cls-2" cx="207.14" cy="71.48" r="3.5"/><circle class="cls-2" cx="225.16" cy="88.67" r="3.5"/><circle class="cls-2" cx="215.64" cy="98.71" r="3.5"/><circle class="cls-2" cx="225.16" cy="126.85" r="3.5"/><circle class="cls-2" cx="197.96" cy="135.35" r="3.5"/><circle class="cls-2" cx="208" cy="144.87" r="3.5"/><circle class="cls-2" cx="169.82" cy="144.87" r="3.5"/><circle class="cls-2" cx="161.32" cy="117.6" r="3.5"/><circle class="cls-2" cx="151.8" cy="127.72" r="3.5"/></svg>